<?xml version="1.0" encoding="utf-8"?>
<!-- Generator: Adobe Illustrator 21.1.0, SVG Export Plug-In . SVG Version: 6.00 Build 0)  -->
<svg version="1.1" xmlns="http://www.w3.org/2000/svg" xmlns:xlink="http://www.w3.org/1999/xlink" x="0px" y="0px"
	 viewBox="0 0 39.6 39.6" style="enable-background:new 0 0 39.6 39.6;" xml:space="preserve">
<style type="text/css">
	.st0{fill:#FFFFFF;}
</style>
<g id="Layer_4">
</g>
<g id="Layer_1">
</g>
<g id="Layer_3">
</g>
<g id="Layer_2">
	<path class="st0" d="M19.8,1.8c-9.9,0-18,8.1-18,18s8.1,18,18,18s18-8.1,18-18S29.7,1.8,19.8,1.8z M24.6,15.2
		c0-0.2-0.1-0.4-0.1-0.6c0-1.2,0.9-2.4,2.2-2.4c1.2,0,2.2,1,2.2,2.3c0,0.2,0,0.5,0,0.7c0.1,0,0.2,0.2,0.2,0.4c0,0.2-0.1,0.4-0.3,0.4
		c0,0,0,0,0,0c-0.3,1.2-1,2-2,2c-1,0-1.6-1-2-2.1c0,0,0,0-0.1,0c-0.1,0-0.3-0.2-0.3-0.4C24.4,15.4,24.5,15.3,24.6,15.2z M16.2,15.9
		c0-2.1,1.6-4.1,3.6-4.1c2.1,0,3.6,1.7,3.7,3.9c0,0.4,0,0.8,0,1.2c0.2,0.1,0.3,0.3,0.3,0.6c0,0.3-0.2,0.6-0.4,0.6c0,0-0.1,0-0.1,0
		c-0.5,1.9-1.6,3.4-3.4,3.4c-1.7,0-2.8-1.7-3.3-3.4c0,0-0.1,0-0.1,0c-0.2,0-0.4-0.3-0.4-0.6c0-0.3,0.1-0.5,0.3-0.6
		C16.2,16.6,16.2,16.2,16.2,15.9z M11.1,15.2c0-0.2-0.1-0.4-0.1-0.6c0-1.2,0.9-2.4,2.2-2.4s2.2,1,2.2,2.3c0,0.2,0,0.5,0,0.7
		c0.1,0,0.2,0.2,0.2,0.4c0,0.2-0.1,0.4-0.3,0.4c0,0,0,0,0,0c-0.3,1.2-1,2-2,2c-1,0-1.6-1-2-2.1c0,0,0,0-0.1,0
		c-0.1,0-0.3-0.2-0.3-0.4C10.9,15.4,11,15.2,11.1,15.2z M8.5,20.4c0,0,1.1-1.4,3.3-1.8c0,0,0.9,0.4,1.4,0.4c0.5,0,1.4-0.4,1.4-0.4
		c0.5,0.1,1,0.3,1.4,0.5c0,0-0.1,0.2,0.5,1.3c0.5,0.9,0.8,1,0.9,1l-8.9,0V20.4z M27.7,27.3l-15.8,0v-1.6c0,0,1.9-2.4,5.6-3.1
		c0,0,1.6,0.6,2.4,0.6c0.9,0,2.3-0.6,2.3-0.6c3.6,0.8,5.6,3.1,5.6,3.1V27.3z M31.4,21.4l-9,0c0.1,0,0.4-0.1,0.9-1
		c0.6-1.1,0.5-1.3,0.5-1.3c0.4-0.2,0.9-0.4,1.4-0.5c0,0,0.8,0.3,1.4,0.4c0.5,0,1.4-0.4,1.4-0.4c2.2,0.4,3.4,1.8,3.4,1.8V21.4z"/>
</g>
</svg>
