<?xml version="1.0" encoding="utf-8"?>
<!-- Generator: Adobe Illustrator 22.0.1, SVG Export Plug-In . SVG Version: 6.00 Build 0)  -->
<svg version="1.1" xmlns="http://www.w3.org/2000/svg" xmlns:xlink="http://www.w3.org/1999/xlink" x="0px" y="0px"
	 viewBox="0 0 441 99" style="enable-background:new 0 0 441 99;" xml:space="preserve">
<style type="text/css">
	.st0{clip-path:url(#SVGID_2_);}
	.st1{clip-path:url(#SVGID_4_);}
	.st2{clip-path:url(#SVGID_6_);fill:url(#SVGID_7_);}
	.st3{clip-path:url(#SVGID_9_);}
	.st4{clip-path:url(#SVGID_11_);}
	.st5{clip-path:url(#SVGID_13_);fill:url(#SVGID_14_);}
	.st6{clip-path:url(#SVGID_16_);}
	.st7{clip-path:url(#SVGID_18_);}
	.st8{clip-path:url(#SVGID_20_);fill:url(#SVGID_21_);}
	.st9{clip-path:url(#SVGID_23_);}
	.st10{clip-path:url(#SVGID_25_);}
	.st11{clip-path:url(#SVGID_27_);fill:url(#SVGID_28_);}
	.st12{clip-path:url(#SVGID_30_);}
	.st13{clip-path:url(#SVGID_32_);}
	.st14{clip-path:url(#SVGID_34_);fill:url(#SVGID_35_);}
	.st15{clip-path:url(#SVGID_37_);}
	.st16{clip-path:url(#SVGID_39_);}
	.st17{clip-path:url(#SVGID_41_);fill:url(#SVGID_42_);}
	.st18{clip-path:url(#SVGID_44_);}
	.st19{clip-path:url(#SVGID_46_);}
	.st20{clip-path:url(#SVGID_48_);fill:url(#SVGID_49_);}
	.st21{clip-path:url(#SVGID_51_);}
	.st22{clip-path:url(#SVGID_53_);}
	.st23{clip-path:url(#SVGID_55_);fill:url(#SVGID_56_);}
	.st24{clip-path:url(#SVGID_58_);}
	.st25{clip-path:url(#SVGID_60_);}
	.st26{clip-path:url(#SVGID_62_);fill:url(#SVGID_63_);}
	.st27{clip-path:url(#SVGID_65_);}
	.st28{clip-path:url(#SVGID_67_);}
	.st29{clip-path:url(#SVGID_69_);fill:url(#SVGID_70_);}
	.st30{clip-path:url(#SVGID_72_);}
	.st31{clip-path:url(#SVGID_74_);}
	.st32{clip-path:url(#SVGID_76_);fill:url(#SVGID_77_);}
	.st33{clip-path:url(#SVGID_79_);}
	.st34{clip-path:url(#SVGID_81_);}
	.st35{clip-path:url(#SVGID_83_);fill:url(#SVGID_84_);}
	.st36{clip-path:url(#SVGID_86_);}
	.st37{clip-path:url(#SVGID_88_);}
	.st38{clip-path:url(#SVGID_90_);fill:url(#SVGID_91_);}
	.st39{clip-path:url(#SVGID_93_);}
	.st40{clip-path:url(#SVGID_95_);}
	.st41{clip-path:url(#SVGID_97_);fill:url(#SVGID_98_);}
	.st42{clip-path:url(#SVGID_100_);}
	.st43{clip-path:url(#SVGID_102_);}
	.st44{clip-path:url(#SVGID_104_);fill:url(#SVGID_105_);}
	.st45{clip-path:url(#SVGID_107_);}
	.st46{clip-path:url(#SVGID_109_);}
	.st47{clip-path:url(#SVGID_111_);fill:url(#SVGID_112_);}
</style>
<g id="Layer_2">
</g>
<g id="Layer_1">
	<g>
		<defs>
			<path id="SVGID_1_" d="M105.9,19.5c29.9-11.7,67.5-16.1,67.5-16.1h-59.9c-7.4,1.2-15.8,3.9-23.8,7.7c5.2,2,10,4.4,14.3,7.1
				C104.6,18.6,105.3,19.1,105.9,19.5z M82.4,74.9c-8.2-5.9-13-13.2-13-21.3c0-11.5,9.4-20.6,22.6-27.7c-3.7-2.5-8-4.7-12.9-6.7
				c-0.8-0.3-1.5-0.6-2.3-0.9c-12.1,8.1-21.3,18.6-21.3,29.3c0,11.7,7.7,22.3,20.2,30.3c4.9,3.1,10.5,5.7,16.7,7.9
				c11.1,3.9,23.9,6.1,37.7,6.1c2.8,0,5.7-0.1,8.4-0.3c-15.4-0.9-29.6-4-41.2-8.6C91.7,80.7,86.6,77.9,82.4,74.9z"/>
		</defs>
		<clipPath id="SVGID_2_">
			<use xlink:href="#SVGID_1_"  style="overflow:visible;"/>
		</clipPath>
		<g class="st0">
			<g>
				<defs>
					<rect id="SVGID_3_" x="-11.7" y="-4.5" width="458.5" height="108"/>
				</defs>
				<clipPath id="SVGID_4_">
					<use xlink:href="#SVGID_3_"  style="overflow:visible;"/>
				</clipPath>
				<g class="st1">
					<defs>
						<rect id="SVGID_5_" x="-11.7" y="-4.5" width="458.5" height="108"/>
					</defs>
					<clipPath id="SVGID_6_">
						<use xlink:href="#SVGID_5_"  style="overflow:visible;"/>
					</clipPath>
					
						<linearGradient id="SVGID_7_" gradientUnits="userSpaceOnUse" x1="-85.2439" y1="-348.0625" x2="-83.6519" y2="-348.0625" gradientTransform="matrix(288 0 0 -288 24538.5 -100192.5)">
						<stop  offset="0" style="stop-color:#EBAE20"/>
						<stop  offset="5.000000e-02" style="stop-color:#EBAE20"/>
						<stop  offset="0.4" style="stop-color:#EFEA4D"/>
						<stop  offset="0.5" style="stop-color:#EFEA4D"/>
						<stop  offset="0.6" style="stop-color:#EFEA4D"/>
						<stop  offset="0.95" style="stop-color:#EBAE20"/>
						<stop  offset="1" style="stop-color:#EBAE20"/>
					</linearGradient>
					<rect x="-11.7" y="-4.5" class="st2" width="458.5" height="108"/>
				</g>
			</g>
		</g>
	</g>
	<g>
		<defs>
			<path id="SVGID_8_" d="M71.9,79.5C42,91.2,4.5,95.6,4.5,95.6h59.9c7.4-1.2,15.8-3.9,23.8-7.7c-5.2-2-10-4.4-14.3-7.1
				C73.3,80.4,72.6,79.9,71.9,79.5z M102.1,21.1c-4.9-3.1-10.5-5.7-16.7-7.9C74.3,9.4,61.5,7.2,47.7,7.2c-2.9,0-5.7,0.1-8.5,0.3
				c15.4,1,29.6,4,41.2,8.6c5.8,2.3,10.9,5,15.1,8.1c8.2,5.9,13,13.2,13,21.3c0,11.5-9.4,20.6-22.6,27.7c3.6,2.5,8,4.7,12.9,6.7
				c0.8,0.3,1.5,0.6,2.3,0.9c12.1-8.1,21.3-18.6,21.3-29.3C122.3,39.6,114.6,29,102.1,21.1z"/>
		</defs>
		<clipPath id="SVGID_9_">
			<use xlink:href="#SVGID_8_"  style="overflow:visible;"/>
		</clipPath>
		<g class="st3">
			<g>
				<defs>
					<rect id="SVGID_10_" x="-11.7" y="-4.5" width="458.5" height="108"/>
				</defs>
				<clipPath id="SVGID_11_">
					<use xlink:href="#SVGID_10_"  style="overflow:visible;"/>
				</clipPath>
				<g class="st4">
					<defs>
						<rect id="SVGID_12_" x="-11.7" y="-4.5" width="458.5" height="108"/>
					</defs>
					<clipPath id="SVGID_13_">
						<use xlink:href="#SVGID_12_"  style="overflow:visible;"/>
					</clipPath>
					
						<linearGradient id="SVGID_14_" gradientUnits="userSpaceOnUse" x1="-85.2439" y1="-348.0625" x2="-83.6519" y2="-348.0625" gradientTransform="matrix(288 0 0 -288 24538.5 -100192.5)">
						<stop  offset="0" style="stop-color:#EBAE20"/>
						<stop  offset="5.000000e-02" style="stop-color:#EBAE20"/>
						<stop  offset="0.4" style="stop-color:#EFEA4D"/>
						<stop  offset="0.5" style="stop-color:#EFEA4D"/>
						<stop  offset="0.6" style="stop-color:#EFEA4D"/>
						<stop  offset="0.95" style="stop-color:#EBAE20"/>
						<stop  offset="1" style="stop-color:#EBAE20"/>
					</linearGradient>
					<rect x="-11.7" y="-4.5" class="st5" width="458.5" height="108"/>
				</g>
			</g>
		</g>
	</g>
	<g>
		<defs>
			<path id="SVGID_15_" d="M161.1,69.1c-1.6,0.8-5.2,1.7-9.7,1.7c-11.9,0-19.1-7.4-19.1-18.9c0-12.3,8.6-19.7,20-19.7
				c4.5,0,7.7,0.9,9,1.7l-1.4,5.4c-1.8-0.8-4.3-1.4-7.3-1.4c-7.6,0-13.1,4.8-13.1,13.7c0,8.3,4.8,13.5,13,13.5
				c2.7,0,5.6-0.6,7.4-1.3L161.1,69.1z"/>
		</defs>
		<clipPath id="SVGID_16_">
			<use xlink:href="#SVGID_15_"  style="overflow:visible;"/>
		</clipPath>
		<g class="st6">
			<g>
				<defs>
					<rect id="SVGID_17_" x="-11.7" y="-4.5" width="458.5" height="108"/>
				</defs>
				<clipPath id="SVGID_18_">
					<use xlink:href="#SVGID_17_"  style="overflow:visible;"/>
				</clipPath>
				<g class="st7">
					<defs>
						<rect id="SVGID_19_" x="-11.7" y="-4.5" width="458.5" height="108"/>
					</defs>
					<clipPath id="SVGID_20_">
						<use xlink:href="#SVGID_19_"  style="overflow:visible;"/>
					</clipPath>
					
						<linearGradient id="SVGID_21_" gradientUnits="userSpaceOnUse" x1="-85.2439" y1="-348.0625" x2="-83.6519" y2="-348.0625" gradientTransform="matrix(288 0 0 -288 24538.5 -100192.5)">
						<stop  offset="0" style="stop-color:#EBAE20"/>
						<stop  offset="5.000000e-02" style="stop-color:#EBAE20"/>
						<stop  offset="0.4" style="stop-color:#EFEA4D"/>
						<stop  offset="0.5" style="stop-color:#EFEA4D"/>
						<stop  offset="0.6" style="stop-color:#EFEA4D"/>
						<stop  offset="0.95" style="stop-color:#EBAE20"/>
						<stop  offset="1" style="stop-color:#EBAE20"/>
					</linearGradient>
					<rect x="-11.7" y="-4.5" class="st8" width="458.5" height="108"/>
				</g>
			</g>
		</g>
	</g>
	<g>
		<defs>
			<path id="SVGID_22_" d="M168,58.5c0.2,4.9,3.9,7,8.3,7c3.2,0,5.4-0.5,7.5-1.2l1,4.7c-2.3,1-5.5,1.7-9.4,1.7
				c-8.8,0-13.9-5.4-13.9-13.6c0-7.5,4.5-14.5,13.2-14.5c8.8,0,11.6,7.2,11.6,13.1c0,1.3-0.1,2.3-0.2,2.9H168z M179.9,53.8
				c0.1-2.5-1.1-6.6-5.6-6.6c-4.2,0-6,3.8-6.3,6.6H179.9z"/>
		</defs>
		<clipPath id="SVGID_23_">
			<use xlink:href="#SVGID_22_"  style="overflow:visible;"/>
		</clipPath>
		<g class="st9">
			<g>
				<defs>
					<rect id="SVGID_24_" x="-11.7" y="-4.5" width="458.5" height="108"/>
				</defs>
				<clipPath id="SVGID_25_">
					<use xlink:href="#SVGID_24_"  style="overflow:visible;"/>
				</clipPath>
				<g class="st10">
					<defs>
						<rect id="SVGID_26_" x="-11.7" y="-4.5" width="458.5" height="108"/>
					</defs>
					<clipPath id="SVGID_27_">
						<use xlink:href="#SVGID_26_"  style="overflow:visible;"/>
					</clipPath>
					
						<linearGradient id="SVGID_28_" gradientUnits="userSpaceOnUse" x1="-85.2439" y1="-348.0625" x2="-83.6519" y2="-348.0625" gradientTransform="matrix(288 0 0 -288 24538.5 -100192.5)">
						<stop  offset="0" style="stop-color:#EBAE20"/>
						<stop  offset="5.000000e-02" style="stop-color:#EBAE20"/>
						<stop  offset="0.4" style="stop-color:#EFEA4D"/>
						<stop  offset="0.5" style="stop-color:#EFEA4D"/>
						<stop  offset="0.6" style="stop-color:#EFEA4D"/>
						<stop  offset="0.95" style="stop-color:#EBAE20"/>
						<stop  offset="1" style="stop-color:#EBAE20"/>
					</linearGradient>
					<rect x="-11.7" y="-4.5" class="st11" width="458.5" height="108"/>
				</g>
			</g>
		</g>
	</g>
	<g>
		<defs>
			<path id="SVGID_29_" d="M189.4,51.2c0-3.1-0.1-5.7-0.2-8h5.9l0.3,4.1h0.2c1.2-2.1,4.2-4.7,8.6-4.7c4.7,0,9.6,3.1,9.6,11.6v16H207
				V54.9c0-3.9-1.4-6.8-5.2-6.8c-2.7,0-4.6,1.9-5.3,4c-0.2,0.6-0.3,1.4-0.3,2.2v15.9h-6.8V51.2z"/>
		</defs>
		<clipPath id="SVGID_30_">
			<use xlink:href="#SVGID_29_"  style="overflow:visible;"/>
		</clipPath>
		<g class="st12">
			<g>
				<defs>
					<rect id="SVGID_31_" x="-11.7" y="-4.5" width="458.5" height="108"/>
				</defs>
				<clipPath id="SVGID_32_">
					<use xlink:href="#SVGID_31_"  style="overflow:visible;"/>
				</clipPath>
				<g class="st13">
					<defs>
						<rect id="SVGID_33_" x="-11.7" y="-4.5" width="458.5" height="108"/>
					</defs>
					<clipPath id="SVGID_34_">
						<use xlink:href="#SVGID_33_"  style="overflow:visible;"/>
					</clipPath>
					
						<linearGradient id="SVGID_35_" gradientUnits="userSpaceOnUse" x1="-85.2439" y1="-348.0625" x2="-83.6519" y2="-348.0625" gradientTransform="matrix(288 0 0 -288 24538.5 -100192.5)">
						<stop  offset="0" style="stop-color:#EBAE20"/>
						<stop  offset="5.000000e-02" style="stop-color:#EBAE20"/>
						<stop  offset="0.4" style="stop-color:#EFEA4D"/>
						<stop  offset="0.5" style="stop-color:#EFEA4D"/>
						<stop  offset="0.6" style="stop-color:#EFEA4D"/>
						<stop  offset="0.95" style="stop-color:#EBAE20"/>
						<stop  offset="1" style="stop-color:#EBAE20"/>
					</linearGradient>
					<rect x="-11.7" y="-4.5" class="st14" width="458.5" height="108"/>
				</g>
			</g>
		</g>
	</g>
	<g>
		<defs>
			<path id="SVGID_36_" d="M225.9,36.2v6.9h6.5v5.1h-6.5v11.9c0,3.3,0.9,5,3.5,5c1.2,0,1.9-0.1,2.7-0.3l0.1,5.2
				c-1,0.4-2.8,0.7-4.9,0.7c-2.6,0-4.6-0.8-5.9-2.2c-1.5-1.6-2.2-4.1-2.2-7.6V48.2h-3.8v-5.1h3.8v-5L225.9,36.2z"/>
		</defs>
		<clipPath id="SVGID_37_">
			<use xlink:href="#SVGID_36_"  style="overflow:visible;"/>
		</clipPath>
		<g class="st15">
			<g>
				<defs>
					<rect id="SVGID_38_" x="-11.7" y="-4.5" width="458.5" height="108"/>
				</defs>
				<clipPath id="SVGID_39_">
					<use xlink:href="#SVGID_38_"  style="overflow:visible;"/>
				</clipPath>
				<g class="st16">
					<defs>
						<rect id="SVGID_40_" x="-11.7" y="-4.5" width="458.5" height="108"/>
					</defs>
					<clipPath id="SVGID_41_">
						<use xlink:href="#SVGID_40_"  style="overflow:visible;"/>
					</clipPath>
					
						<linearGradient id="SVGID_42_" gradientUnits="userSpaceOnUse" x1="-85.2439" y1="-348.0625" x2="-83.6519" y2="-348.0625" gradientTransform="matrix(288 0 0 -288 24538.5 -100192.5)">
						<stop  offset="0" style="stop-color:#EBAE20"/>
						<stop  offset="5.000000e-02" style="stop-color:#EBAE20"/>
						<stop  offset="0.4" style="stop-color:#EFEA4D"/>
						<stop  offset="0.5" style="stop-color:#EFEA4D"/>
						<stop  offset="0.6" style="stop-color:#EFEA4D"/>
						<stop  offset="0.95" style="stop-color:#EBAE20"/>
						<stop  offset="1" style="stop-color:#EBAE20"/>
					</linearGradient>
					<rect x="-11.7" y="-4.5" class="st17" width="458.5" height="108"/>
				</g>
			</g>
		</g>
	</g>
	<g>
		<defs>
			<path id="SVGID_43_" d="M258.8,62c0,3.2,0.1,5.9,0.2,8.1h-5.9l-0.3-4.1h-0.2c-1.2,1.9-3.8,4.7-8.7,4.7c-4.9,0-9.4-2.9-9.4-11.8
				V43.1h6.8v14.7c0,4.5,1.4,7.4,5,7.4c2.8,0,4.5-1.9,5.2-3.7c0.3-0.6,0.4-1.3,0.4-2.1V43.1h6.8V62z"/>
		</defs>
		<clipPath id="SVGID_44_">
			<use xlink:href="#SVGID_43_"  style="overflow:visible;"/>
		</clipPath>
		<g class="st18">
			<g>
				<defs>
					<rect id="SVGID_45_" x="-11.7" y="-4.5" width="458.5" height="108"/>
				</defs>
				<clipPath id="SVGID_46_">
					<use xlink:href="#SVGID_45_"  style="overflow:visible;"/>
				</clipPath>
				<g class="st19">
					<defs>
						<rect id="SVGID_47_" x="-11.7" y="-4.5" width="458.5" height="108"/>
					</defs>
					<clipPath id="SVGID_48_">
						<use xlink:href="#SVGID_47_"  style="overflow:visible;"/>
					</clipPath>
					
						<linearGradient id="SVGID_49_" gradientUnits="userSpaceOnUse" x1="-85.2439" y1="-348.0625" x2="-83.6519" y2="-348.0625" gradientTransform="matrix(288 0 0 -288 24538.5 -100192.5)">
						<stop  offset="0" style="stop-color:#EBAE20"/>
						<stop  offset="5.000000e-02" style="stop-color:#EBAE20"/>
						<stop  offset="0.4" style="stop-color:#EFEA4D"/>
						<stop  offset="0.5" style="stop-color:#EFEA4D"/>
						<stop  offset="0.6" style="stop-color:#EFEA4D"/>
						<stop  offset="0.95" style="stop-color:#EBAE20"/>
						<stop  offset="1" style="stop-color:#EBAE20"/>
					</linearGradient>
					<rect x="-11.7" y="-4.5" class="st20" width="458.5" height="108"/>
				</g>
			</g>
		</g>
	</g>
	<g>
		<defs>
			<path id="SVGID_50_" d="M263.5,51.8c0-3.7-0.1-6.3-0.2-8.7h5.9l0.3,5.1h0.2c1.3-3.8,4.5-5.7,7.4-5.7c0.7,0,1.1,0.1,1.6,0.2V49
				c-0.6-0.1-1.2-0.2-2.1-0.2c-3.2,0-5.5,2.1-6.1,5.2c-0.1,0.6-0.2,1.3-0.2,2.1v14h-6.8V51.8z"/>
		</defs>
		<clipPath id="SVGID_51_">
			<use xlink:href="#SVGID_50_"  style="overflow:visible;"/>
		</clipPath>
		<g class="st21">
			<g>
				<defs>
					<rect id="SVGID_52_" x="-11.7" y="-4.5" width="458.5" height="108"/>
				</defs>
				<clipPath id="SVGID_53_">
					<use xlink:href="#SVGID_52_"  style="overflow:visible;"/>
				</clipPath>
				<g class="st22">
					<defs>
						<rect id="SVGID_54_" x="-11.7" y="-4.5" width="458.5" height="108"/>
					</defs>
					<clipPath id="SVGID_55_">
						<use xlink:href="#SVGID_54_"  style="overflow:visible;"/>
					</clipPath>
					
						<linearGradient id="SVGID_56_" gradientUnits="userSpaceOnUse" x1="-85.2439" y1="-348.0625" x2="-83.6519" y2="-348.0625" gradientTransform="matrix(288 0 0 -288 24538.5 -100192.5)">
						<stop  offset="0" style="stop-color:#EBAE20"/>
						<stop  offset="5.000000e-02" style="stop-color:#EBAE20"/>
						<stop  offset="0.4" style="stop-color:#EFEA4D"/>
						<stop  offset="0.5" style="stop-color:#EFEA4D"/>
						<stop  offset="0.6" style="stop-color:#EFEA4D"/>
						<stop  offset="0.95" style="stop-color:#EBAE20"/>
						<stop  offset="1" style="stop-color:#EBAE20"/>
					</linearGradient>
					<rect x="-11.7" y="-4.5" class="st23" width="458.5" height="108"/>
				</g>
			</g>
		</g>
	</g>
	<g>
		<defs>
			<path id="SVGID_57_" d="M286.6,43.1l4.8,14.5c0.6,1.7,1.2,3.7,1.6,5.2h0.2c0.4-1.5,0.9-3.6,1.4-5.3l4.2-14.4h7.3l-6.8,18.4
				c-3.7,10.1-6.2,14.6-9.4,17.4c-2.7,2.3-5.5,3.2-7.2,3.4l-1.6-5.7c1.2-0.3,2.5-0.9,3.9-1.9c1.3-0.8,2.8-2.4,3.8-4.3
				c0.3-0.5,0.4-0.9,0.4-1.2c0-0.3-0.1-0.7-0.3-1.3l-9.9-24.8H286.6z"/>
		</defs>
		<clipPath id="SVGID_58_">
			<use xlink:href="#SVGID_57_"  style="overflow:visible;"/>
		</clipPath>
		<g class="st24">
			<g>
				<defs>
					<rect id="SVGID_59_" x="-11.7" y="-4.5" width="458.5" height="108"/>
				</defs>
				<clipPath id="SVGID_60_">
					<use xlink:href="#SVGID_59_"  style="overflow:visible;"/>
				</clipPath>
				<g class="st25">
					<defs>
						<rect id="SVGID_61_" x="-11.7" y="-4.5" width="458.5" height="108"/>
					</defs>
					<clipPath id="SVGID_62_">
						<use xlink:href="#SVGID_61_"  style="overflow:visible;"/>
					</clipPath>
					
						<linearGradient id="SVGID_63_" gradientUnits="userSpaceOnUse" x1="-85.2439" y1="-348.0625" x2="-83.6519" y2="-348.0625" gradientTransform="matrix(288 0 0 -288 24538.5 -100192.5)">
						<stop  offset="0" style="stop-color:#EBAE20"/>
						<stop  offset="5.000000e-02" style="stop-color:#EBAE20"/>
						<stop  offset="0.4" style="stop-color:#EFEA4D"/>
						<stop  offset="0.5" style="stop-color:#EFEA4D"/>
						<stop  offset="0.6" style="stop-color:#EFEA4D"/>
						<stop  offset="0.95" style="stop-color:#EBAE20"/>
						<stop  offset="1" style="stop-color:#EBAE20"/>
					</linearGradient>
					<rect x="-11.7" y="-4.5" class="st26" width="458.5" height="108"/>
				</g>
			</g>
		</g>
	</g>
	<g>
		<defs>
			<path id="SVGID_64_" d="M308.5,33.2c3.1-0.4,6.8-0.8,10.9-0.8c7,0,11.8,1.4,15.2,4.3c3.7,2.9,5.9,7.4,5.9,13.8
				c0,6.7-2.3,11.6-5.8,14.9c-3.7,3.4-9.7,5.1-16.9,5.1c-3.9,0-6.9-0.2-9.2-0.5V33.2z M315.3,65c0.9,0.2,2.4,0.2,3.8,0.2
				c8.9,0,14.1-4.9,14.1-14.4c0.1-8.2-4.7-13-13.3-13c-2.2,0-3.7,0.2-4.7,0.4V65z"/>
		</defs>
		<clipPath id="SVGID_65_">
			<use xlink:href="#SVGID_64_"  style="overflow:visible;"/>
		</clipPath>
		<g class="st27">
			<g>
				<defs>
					<rect id="SVGID_66_" x="-11.7" y="-4.5" width="458.5" height="108"/>
				</defs>
				<clipPath id="SVGID_67_">
					<use xlink:href="#SVGID_66_"  style="overflow:visible;"/>
				</clipPath>
				<g class="st28">
					<defs>
						<rect id="SVGID_68_" x="-11.7" y="-4.5" width="458.5" height="108"/>
					</defs>
					<clipPath id="SVGID_69_">
						<use xlink:href="#SVGID_68_"  style="overflow:visible;"/>
					</clipPath>
					
						<linearGradient id="SVGID_70_" gradientUnits="userSpaceOnUse" x1="-85.2439" y1="-348.0625" x2="-83.6519" y2="-348.0625" gradientTransform="matrix(288 0 0 -288 24538.5 -100192.5)">
						<stop  offset="0" style="stop-color:#EBAE20"/>
						<stop  offset="5.000000e-02" style="stop-color:#EBAE20"/>
						<stop  offset="0.4" style="stop-color:#EFEA4D"/>
						<stop  offset="0.5" style="stop-color:#EFEA4D"/>
						<stop  offset="0.6" style="stop-color:#EFEA4D"/>
						<stop  offset="0.95" style="stop-color:#EBAE20"/>
						<stop  offset="1" style="stop-color:#EBAE20"/>
					</linearGradient>
					<rect x="-11.7" y="-4.5" class="st29" width="458.5" height="108"/>
				</g>
			</g>
		</g>
	</g>
	<g>
		<defs>
			<path id="SVGID_71_" d="M351,35.6c0,2-1.5,3.7-3.9,3.7c-2.3,0-3.8-1.7-3.8-3.7c0-2.1,1.6-3.7,3.8-3.7
				C349.5,31.9,350.9,33.5,351,35.6z"/>
		</defs>
		<clipPath id="SVGID_72_">
			<use xlink:href="#SVGID_71_"  style="overflow:visible;"/>
		</clipPath>
		<g class="st30">
			<g>
				<defs>
					<rect id="SVGID_73_" x="-11.7" y="-4.5" width="458.5" height="108"/>
				</defs>
				<clipPath id="SVGID_74_">
					<use xlink:href="#SVGID_73_"  style="overflow:visible;"/>
				</clipPath>
				<g class="st31">
					<defs>
						<rect id="SVGID_75_" x="-11.7" y="-4.5" width="458.5" height="108"/>
					</defs>
					<clipPath id="SVGID_76_">
						<use xlink:href="#SVGID_75_"  style="overflow:visible;"/>
					</clipPath>
					
						<linearGradient id="SVGID_77_" gradientUnits="userSpaceOnUse" x1="-85.2439" y1="-348.0625" x2="-83.6519" y2="-348.0625" gradientTransform="matrix(288 0 0 -288 24538.5 -100192.5)">
						<stop  offset="0" style="stop-color:#EBAE20"/>
						<stop  offset="5.000000e-02" style="stop-color:#EBAE20"/>
						<stop  offset="0.4" style="stop-color:#EFEA4D"/>
						<stop  offset="0.5" style="stop-color:#EFEA4D"/>
						<stop  offset="0.6" style="stop-color:#EFEA4D"/>
						<stop  offset="0.95" style="stop-color:#EBAE20"/>
						<stop  offset="1" style="stop-color:#EBAE20"/>
					</linearGradient>
					<rect x="-11.7" y="-4.5" class="st32" width="458.5" height="108"/>
				</g>
			</g>
		</g>
	</g>
	<g>
		<defs>
			<rect id="SVGID_78_" x="343.7" y="43.1" width="6.8" height="27"/>
		</defs>
		<clipPath id="SVGID_79_">
			<use xlink:href="#SVGID_78_"  style="overflow:visible;"/>
		</clipPath>
		<g class="st33">
			<g>
				<defs>
					<rect id="SVGID_80_" x="-11.7" y="-4.5" width="458.5" height="108"/>
				</defs>
				<clipPath id="SVGID_81_">
					<use xlink:href="#SVGID_80_"  style="overflow:visible;"/>
				</clipPath>
				<g class="st34">
					<defs>
						<rect id="SVGID_82_" x="-11.7" y="-4.5" width="458.5" height="108"/>
					</defs>
					<clipPath id="SVGID_83_">
						<use xlink:href="#SVGID_82_"  style="overflow:visible;"/>
					</clipPath>
					
						<linearGradient id="SVGID_84_" gradientUnits="userSpaceOnUse" x1="-85.2439" y1="-348.0625" x2="-83.6519" y2="-348.0625" gradientTransform="matrix(288 0 0 -288 24538.5 -100192.5)">
						<stop  offset="0" style="stop-color:#EBAE20"/>
						<stop  offset="5.000000e-02" style="stop-color:#EBAE20"/>
						<stop  offset="0.4" style="stop-color:#EFEA4D"/>
						<stop  offset="0.5" style="stop-color:#EFEA4D"/>
						<stop  offset="0.6" style="stop-color:#EFEA4D"/>
						<stop  offset="0.95" style="stop-color:#EBAE20"/>
						<stop  offset="1" style="stop-color:#EBAE20"/>
					</linearGradient>
					<rect x="-11.7" y="-4.5" class="st35" width="458.5" height="108"/>
				</g>
			</g>
		</g>
	</g>
	<g>
		<defs>
			<path id="SVGID_85_" d="M355.2,51.8c0-3.7-0.1-6.3-0.2-8.7h5.9l0.3,5.1h0.2c1.3-3.8,4.5-5.7,7.4-5.7c0.7,0,1.1,0.1,1.6,0.2V49
				c-0.6-0.1-1.2-0.2-2.1-0.2c-3.2,0-5.5,2.1-6.1,5.2c-0.1,0.6-0.2,1.3-0.2,2.1v14h-6.8V51.8z"/>
		</defs>
		<clipPath id="SVGID_86_">
			<use xlink:href="#SVGID_85_"  style="overflow:visible;"/>
		</clipPath>
		<g class="st36">
			<g>
				<defs>
					<rect id="SVGID_87_" x="-11.7" y="-4.5" width="458.5" height="108"/>
				</defs>
				<clipPath id="SVGID_88_">
					<use xlink:href="#SVGID_87_"  style="overflow:visible;"/>
				</clipPath>
				<g class="st37">
					<defs>
						<rect id="SVGID_89_" x="-11.7" y="-4.5" width="458.5" height="108"/>
					</defs>
					<clipPath id="SVGID_90_">
						<use xlink:href="#SVGID_89_"  style="overflow:visible;"/>
					</clipPath>
					
						<linearGradient id="SVGID_91_" gradientUnits="userSpaceOnUse" x1="-85.2439" y1="-348.0625" x2="-83.6519" y2="-348.0625" gradientTransform="matrix(288 0 0 -288 24538.5 -100192.5)">
						<stop  offset="0" style="stop-color:#EBAE20"/>
						<stop  offset="5.000000e-02" style="stop-color:#EBAE20"/>
						<stop  offset="0.4" style="stop-color:#EFEA4D"/>
						<stop  offset="0.5" style="stop-color:#EFEA4D"/>
						<stop  offset="0.6" style="stop-color:#EFEA4D"/>
						<stop  offset="0.95" style="stop-color:#EBAE20"/>
						<stop  offset="1" style="stop-color:#EBAE20"/>
					</linearGradient>
					<rect x="-11.7" y="-4.5" class="st38" width="458.5" height="108"/>
				</g>
			</g>
		</g>
	</g>
	<g>
		<defs>
			<path id="SVGID_92_" d="M377.1,58.5c0.2,4.9,3.9,7,8.3,7c3.2,0,5.4-0.5,7.5-1.2l1,4.7c-2.3,1-5.5,1.7-9.4,1.7
				c-8.8,0-13.9-5.4-13.9-13.6c0-7.5,4.5-14.5,13.2-14.5c8.8,0,11.6,7.2,11.6,13.1c0,1.3-0.1,2.3-0.2,2.9H377.1z M389,53.8
				c0.1-2.5-1.1-6.6-5.6-6.6c-4.2,0-6,3.8-6.3,6.6H389z"/>
		</defs>
		<clipPath id="SVGID_93_">
			<use xlink:href="#SVGID_92_"  style="overflow:visible;"/>
		</clipPath>
		<g class="st39">
			<g>
				<defs>
					<rect id="SVGID_94_" x="-11.7" y="-4.5" width="458.5" height="108"/>
				</defs>
				<clipPath id="SVGID_95_">
					<use xlink:href="#SVGID_94_"  style="overflow:visible;"/>
				</clipPath>
				<g class="st40">
					<defs>
						<rect id="SVGID_96_" x="-11.7" y="-4.5" width="458.5" height="108"/>
					</defs>
					<clipPath id="SVGID_97_">
						<use xlink:href="#SVGID_96_"  style="overflow:visible;"/>
					</clipPath>
					
						<linearGradient id="SVGID_98_" gradientUnits="userSpaceOnUse" x1="-85.2439" y1="-348.0625" x2="-83.6519" y2="-348.0625" gradientTransform="matrix(288 0 0 -288 24538.5 -100192.5)">
						<stop  offset="0" style="stop-color:#EBAE20"/>
						<stop  offset="5.000000e-02" style="stop-color:#EBAE20"/>
						<stop  offset="0.4" style="stop-color:#EFEA4D"/>
						<stop  offset="0.5" style="stop-color:#EFEA4D"/>
						<stop  offset="0.6" style="stop-color:#EFEA4D"/>
						<stop  offset="0.95" style="stop-color:#EBAE20"/>
						<stop  offset="1" style="stop-color:#EBAE20"/>
					</linearGradient>
					<rect x="-11.7" y="-4.5" class="st41" width="458.5" height="108"/>
				</g>
			</g>
		</g>
	</g>
	<g>
		<defs>
			<path id="SVGID_99_" d="M418.5,69.3c-1.4,0.7-4.3,1.4-7.6,1.4c-8.4,0-13.9-5.4-13.9-13.8c0-8.1,5.5-14.4,15-14.4
				c2.5,0,5,0.6,6.6,1.2l-1.2,5.2c-1.1-0.6-2.7-1.1-5.2-1.1c-5.2,0-8.3,3.8-8.3,8.8c0,5.5,3.6,8.7,8.3,8.7c2.3,0,4-0.5,5.4-1.1
				L418.5,69.3z"/>
		</defs>
		<clipPath id="SVGID_100_">
			<use xlink:href="#SVGID_99_"  style="overflow:visible;"/>
		</clipPath>
		<g class="st42">
			<g>
				<defs>
					<rect id="SVGID_101_" x="-11.7" y="-4.5" width="458.5" height="108"/>
				</defs>
				<clipPath id="SVGID_102_">
					<use xlink:href="#SVGID_101_"  style="overflow:visible;"/>
				</clipPath>
				<g class="st43">
					<defs>
						<rect id="SVGID_103_" x="-11.7" y="-4.5" width="458.5" height="108"/>
					</defs>
					<clipPath id="SVGID_104_">
						<use xlink:href="#SVGID_103_"  style="overflow:visible;"/>
					</clipPath>
					
						<linearGradient id="SVGID_105_" gradientUnits="userSpaceOnUse" x1="-85.2439" y1="-348.0625" x2="-83.6519" y2="-348.0625" gradientTransform="matrix(288 0 0 -288 24538.5 -100192.5)">
						<stop  offset="0" style="stop-color:#EBAE20"/>
						<stop  offset="5.000000e-02" style="stop-color:#EBAE20"/>
						<stop  offset="0.4" style="stop-color:#EFEA4D"/>
						<stop  offset="0.5" style="stop-color:#EFEA4D"/>
						<stop  offset="0.6" style="stop-color:#EFEA4D"/>
						<stop  offset="0.95" style="stop-color:#EBAE20"/>
						<stop  offset="1" style="stop-color:#EBAE20"/>
					</linearGradient>
					<rect x="-11.7" y="-4.5" class="st44" width="458.5" height="108"/>
				</g>
			</g>
		</g>
	</g>
	<g>
		<defs>
			<path id="SVGID_106_" d="M430,36.2v6.9h6.5v5.1H430v11.9c0,3.3,0.9,5,3.5,5c1.2,0,1.9-0.1,2.7-0.3l0.1,5.2
				c-1,0.4-2.8,0.7-4.9,0.7c-2.6,0-4.6-0.8-5.9-2.2c-1.5-1.6-2.2-4.1-2.2-7.6V48.2h-3.8v-5.1h3.8v-5L430,36.2z"/>
		</defs>
		<clipPath id="SVGID_107_">
			<use xlink:href="#SVGID_106_"  style="overflow:visible;"/>
		</clipPath>
		<g class="st45">
			<g>
				<defs>
					<rect id="SVGID_108_" x="-11.7" y="-4.5" width="458.5" height="108"/>
				</defs>
				<clipPath id="SVGID_109_">
					<use xlink:href="#SVGID_108_"  style="overflow:visible;"/>
				</clipPath>
				<g class="st46">
					<defs>
						<rect id="SVGID_110_" x="-11.7" y="-4.5" width="458.5" height="108"/>
					</defs>
					<clipPath id="SVGID_111_">
						<use xlink:href="#SVGID_110_"  style="overflow:visible;"/>
					</clipPath>
					
						<linearGradient id="SVGID_112_" gradientUnits="userSpaceOnUse" x1="-85.2439" y1="-348.0625" x2="-83.6519" y2="-348.0625" gradientTransform="matrix(288 0 0 -288 24538.5 -100192.5)">
						<stop  offset="0" style="stop-color:#EBAE20"/>
						<stop  offset="5.000000e-02" style="stop-color:#EBAE20"/>
						<stop  offset="0.4" style="stop-color:#EFEA4D"/>
						<stop  offset="0.5" style="stop-color:#EFEA4D"/>
						<stop  offset="0.6" style="stop-color:#EFEA4D"/>
						<stop  offset="0.95" style="stop-color:#EBAE20"/>
						<stop  offset="1" style="stop-color:#EBAE20"/>
					</linearGradient>
					<rect x="-11.7" y="-4.5" class="st47" width="458.5" height="108"/>
				</g>
			</g>
		</g>
	</g>
</g>
</svg>
