<?xml version="1.0" encoding="utf-8"?>
<svg viewBox="0 0 588 132" height="132" width="588" id="svg2" version="1.1" xmlns="http://www.w3.org/2000/svg">
  <defs id="defs6">
    <clipPath id="clipPath18" clipPathUnits="userSpaceOnUse">
      <path id="path16" d="M 0,99 H 441 V 0 H 0 Z"/>
    </clipPath>
  </defs>
  <g transform="matrix(1.3333333,0,0,-1.3333333,0,132)" id="g10">
    <g id="g12">
      <g clip-path="url(#clipPath18)" id="g14">
        <g transform="translate(82.4178,24.1185)" id="g20">
          <path id="path22" style="fill-opacity: 1; fill-rule: nonzero; stroke: none; fill: rgb(252, 208, 8);" d="m 0,0 c -8.153,5.941 -12.963,13.162 -12.963,21.276 0,11.46 9.409,20.57 22.558,27.71 -3.654,2.467 -7.986,4.723 -12.888,6.692 -0.759,0.298 -1.535,0.597 -2.312,0.883 -12.111,-8.116 -21.252,-18.574 -21.252,-29.343 0,-11.695 7.687,-22.346 20.239,-30.251 4.878,-3.082 10.489,-5.742 16.673,-7.879 11.061,-3.853 23.949,-6.065 37.701,-6.065 2.846,0 5.673,0.099 8.445,0.298 -15.398,0.945 -29.642,3.977 -41.156,8.588 C 9.278,-5.78 4.189,-3.057 0,0 M 23.502,55.367 C 53.448,67.112 90.957,71.494 90.957,71.494 H 31.027 C 23.645,70.313 15.25,67.585 7.19,63.769 c 5.207,-2.007 10.011,-4.374 14.292,-7.084 0.691,-0.429 1.361,-0.87 2.02,-1.318"/>
        </g>
        <g transform="translate(102.0733,77.9139)" id="g24">
          <path id="path26" style="fill-opacity: 1; fill-rule: nonzero; stroke: none; fill: rgb(252, 208, 8);" d="m 0,0 c -4.884,3.082 -10.496,5.736 -16.678,7.874 -11.074,3.852 -23.944,6.052 -37.702,6.052 -2.852,0 -5.667,-0.093 -8.458,-0.267 15.411,-0.975 29.648,-3.971 41.163,-8.601 5.773,-2.311 10.857,-5.027 15.057,-8.084 8.153,-5.94 12.957,-13.18 12.957,-21.277 0,-11.478 -9.409,-20.581 -22.558,-27.715 3.629,-2.461 7.954,-4.711 12.888,-6.687 0.759,-0.298 1.529,-0.596 2.312,-0.882 C 11.08,-51.483 20.24,-41.02 20.24,-30.263 20.24,-18.555 12.553,-7.904 0,0 m -30.132,-58.394 c -29.953,-11.758 -67.443,-16.132 -67.443,-16.132 h 59.923 c 7.389,1.169 15.778,3.89 23.85,7.718 -5.195,2.001 -9.998,4.374 -14.298,7.084 -0.697,0.435 -1.367,0.87 -2.032,1.33"/>
        </g>
        <g transform="translate(161.0584,29.9222)" id="g28">
          <path id="path30" style="fill-opacity: 1; fill-rule: nonzero; stroke: none; fill: rgb(252, 208, 8);" d="m 0,0 c -1.609,-0.77 -5.158,-1.666 -9.707,-1.666 -11.868,0 -19.083,7.433 -19.083,18.867 0,12.31 8.6,19.742 20.022,19.742 4.493,0 7.655,-0.939 9.041,-1.659 l -1.442,-5.443 c -1.771,0.782 -4.268,1.441 -7.32,1.441 -7.6,0 -13.086,-4.766 -13.086,-13.745 0,-8.278 4.766,-13.485 13.03,-13.485 2.723,0 5.605,0.559 7.432,1.329 z"/>
        </g>
        <g transform="translate(179.9185,45.2343)" id="g32">
          <path id="path34" style="fill-opacity: 1; fill-rule: nonzero; stroke: none; fill: rgb(252, 208, 8);" d="m 0,0 c 0.055,2.498 -1.057,6.599 -5.606,6.599 -4.213,0 -5.99,-3.828 -6.264,-6.599 z m -11.87,-4.773 c 0.163,-4.884 3.934,-6.984 8.315,-6.984 3.163,0 5.381,0.496 7.488,1.218 l 1.001,-4.662 c -2.33,-0.994 -5.549,-1.714 -9.427,-1.714 -8.762,0 -13.926,5.382 -13.926,13.645 0,7.483 4.549,14.53 13.205,14.53 8.762,0 11.645,-7.208 11.645,-13.143 0,-1.274 -0.112,-2.275 -0.223,-2.89 z"/>
        </g>
        <g transform="translate(189.3887,47.8441)" id="g36">
          <path id="path38" style="fill-opacity: 1; fill-rule: nonzero; stroke: none; fill: rgb(252, 208, 8);" d="M 0,0 C 0,3.107 -0.112,5.711 -0.224,8.041 H 5.711 L 6.04,3.989 h 0.168 c 1.218,2.113 4.163,4.661 8.65,4.661 4.716,0 9.601,-3.051 9.601,-11.59 v -16.038 h -6.823 v 15.262 c 0,3.877 -1.442,6.823 -5.158,6.823 C 9.756,3.107 7.873,1.162 7.152,-0.889 6.929,-1.442 6.817,-2.275 6.817,-3.051 V -18.978 H 0 Z"/>
        </g>
        <g transform="translate(225.9158,62.8202)" id="g40">
          <path id="path42" style="fill-opacity: 1; fill-rule: nonzero; stroke: none; fill: rgb(252, 208, 8);" d="m 0,0 v -6.935 h 6.494 v -5.102 H 0 v -11.925 c 0,-3.33 0.888,-4.997 3.499,-4.997 1.217,0 1.882,0.063 2.659,0.274 l 0.112,-5.158 c -1,-0.384 -2.828,-0.72 -4.934,-0.72 -2.554,0 -4.606,0.832 -5.885,2.224 -1.498,1.554 -2.163,4.052 -2.163,7.594 v 12.708 h -3.828 v 5.102 h 3.828 v 5.046 z"/>
        </g>
        <g transform="translate(258.7945,36.9689)" id="g44">
          <path id="path46" style="fill-opacity: 1; fill-rule: nonzero; stroke: none; fill: rgb(252, 208, 8);" d="m 0,0 c 0,-3.219 0.111,-5.879 0.224,-8.103 h -5.935 l -0.335,4.051 h -0.168 c -1.162,-1.876 -3.828,-4.66 -8.706,-4.66 -4.878,0 -9.371,2.946 -9.371,11.757 v 15.871 h 6.824 V 4.213 c 0,-4.487 1.441,-7.369 5.045,-7.369 2.772,0 4.549,1.876 5.214,3.654 0.273,0.559 0.385,1.329 0.385,2.112 V 18.916 H 0 Z"/>
        </g>
        <g transform="translate(263.4864,47.1728)" id="g48">
          <path id="path50" style="fill-opacity: 1; fill-rule: nonzero; stroke: none; fill: rgb(252, 208, 8);" d="M 0,0 C 0,3.666 -0.055,6.326 -0.218,8.712 H 5.661 L 5.935,3.61 h 0.167 c 1.33,3.773 4.493,5.711 7.432,5.711 0.665,0 1.057,-0.056 1.61,-0.161 V 2.777 C 14.535,2.89 13.92,2.945 13.093,2.945 9.874,2.945 7.6,0.894 6.991,-2.212 6.879,-2.821 6.824,-3.542 6.824,-4.263 V -18.307 H 0 Z"/>
        </g>
        <g transform="translate(286.6157,55.885)" id="g52">
          <path id="path54" style="fill-opacity: 1; fill-rule: nonzero; stroke: none; fill: rgb(252, 208, 8);" d="m 0,0 4.828,-14.479 c 0.553,-1.665 1.162,-3.716 1.554,-5.22 h 0.167 c 0.385,1.504 0.883,3.555 1.442,5.282 L 12.204,0 h 7.265 L 12.702,-18.419 C 8.985,-28.51 6.493,-33.009 3.331,-35.781 c -2.716,-2.324 -5.494,-3.206 -7.153,-3.43 l -1.554,5.704 c 1.162,0.286 2.549,0.895 3.934,1.889 1.336,0.833 2.834,2.436 3.772,4.276 0.28,0.497 0.391,0.883 0.391,1.218 0,0.273 -0.055,0.659 -0.335,1.329 L -7.538,0 Z"/>
        </g>
        <g transform="translate(315.2937,34.0237)" id="g56">
          <path id="path58" style="fill-opacity: 1; fill-rule: nonzero; stroke: none; fill: rgb(252, 208, 8);" d="M 0,0 C 0.944,-0.162 2.386,-0.162 3.772,-0.162 12.645,-0.211 17.915,4.723 17.915,14.205 17.971,22.414 13.199,27.181 4.661,27.181 2.498,27.181 1,27.019 0,26.796 Z m -6.823,31.73 c 3.051,0.447 6.823,0.782 10.875,0.782 6.984,0 11.757,-1.441 15.193,-4.325 3.66,-2.946 5.879,-7.431 5.879,-13.758 0,-6.711 -2.275,-11.645 -5.823,-14.864 -3.716,-3.38 -9.65,-5.108 -16.915,-5.108 -3.939,0 -6.934,0.223 -9.209,0.496 z"/>
        </g>
        <g transform="translate(350.9943,63.4292)" id="g60">
          <path id="path62" style="fill-opacity: 1; fill-rule: nonzero; stroke: none; fill: rgb(252, 208, 8);" d="m 0,0 c 0,-2.001 -1.498,-3.666 -3.884,-3.666 -2.275,0 -3.772,1.665 -3.772,3.666 0,2.106 1.554,3.716 3.828,3.716 2.33,0 3.772,-1.61 3.828,-3.716"/>
        </g>
        <path id="path64" style="fill-opacity: 1; fill-rule: nonzero; stroke: none; fill: rgb(252, 208, 8);" d="m 343.724,55.885 h 6.823 V 28.866 h -6.823 z"/>
        <g transform="translate(355.1949,47.1728)" id="g66">
          <path id="path68" style="fill-opacity: 1; fill-rule: nonzero; stroke: none; fill: rgb(252, 208, 8);" d="M 0,0 C 0,3.666 -0.056,6.326 -0.224,8.712 H 5.655 L 5.934,3.61 h 0.168 c 1.331,3.773 4.493,5.711 7.432,5.711 0.665,0 1.051,-0.056 1.61,-0.161 V 2.777 C 14.529,2.89 13.92,2.945 13.087,2.945 9.874,2.945 7.6,0.894 6.985,-2.212 6.879,-2.821 6.823,-3.542 6.823,-4.263 V -18.307 H 0 Z"/>
        </g>
        <g transform="translate(388.9875,45.2343)" id="g70">
          <path id="path72" style="fill-opacity: 1; fill-rule: nonzero; stroke: none; fill: rgb(252, 208, 8);" d="m 0,0 c 0.056,2.498 -1.057,6.599 -5.605,6.599 -4.213,0 -5.99,-3.828 -6.264,-6.599 z m -11.869,-4.773 c 0.162,-4.884 3.934,-6.984 8.32,-6.984 3.158,0 5.376,0.496 7.483,1.218 l 1,-4.662 c -2.33,-0.994 -5.549,-1.714 -9.427,-1.714 -8.762,0 -13.926,5.382 -13.926,13.645 0,7.483 4.549,14.53 13.206,14.53 8.761,0 11.644,-7.208 11.644,-13.143 0,-1.274 -0.111,-2.275 -0.223,-2.89 z"/>
        </g>
        <g transform="translate(418.542,29.6984)" id="g74">
          <path id="path76" style="fill-opacity: 1; fill-rule: nonzero; stroke: none; fill: rgb(252, 208, 8);" d="m 0,0 c -1.442,-0.659 -4.269,-1.379 -7.649,-1.379 -8.434,0 -13.926,5.431 -13.926,13.808 0,8.103 5.549,14.367 15.031,14.367 2.499,0 5.047,-0.553 6.6,-1.218 L -1.162,20.42 c -1.113,0.553 -2.721,1.056 -5.158,1.056 -5.213,0 -8.321,-3.828 -8.265,-8.767 0,-5.55 3.604,-8.707 8.265,-8.707 2.331,0 4.045,0.497 5.382,1.056 z"/>
        </g>
        <g transform="translate(430.0076,62.8202)" id="g78">
          <path id="path80" style="fill-opacity: 1; fill-rule: nonzero; stroke: none; fill: rgb(252, 208, 8);" d="m 0,0 v -6.935 h 6.494 v -5.102 H 0 v -11.925 c 0,-3.33 0.888,-4.997 3.498,-4.997 1.218,0 1.882,0.063 2.66,0.274 l 0.111,-5.158 c -0.994,-0.384 -2.826,-0.72 -4.933,-0.72 -2.555,0 -4.606,0.832 -5.879,2.224 -1.498,1.554 -2.163,4.052 -2.163,7.594 v 12.708 h -3.828 v 5.102 h 3.828 v 5.046 z"/>
        </g>
      </g>
    </g>
  </g>
</svg>