<?xml version="1.0" encoding="utf-8"?>
<!-- Generator: Adobe Illustrator 21.1.0, SVG Export Plug-In . SVG Version: 6.00 Build 0)  -->
<svg version="1.1" xmlns="http://www.w3.org/2000/svg" xmlns:xlink="http://www.w3.org/1999/xlink" x="0px" y="0px"
	 viewBox="0 0 39.6 39.6" style="enable-background:new 0 0 39.6 39.6;" xml:space="preserve">
<style type="text/css">
	.st0{fill:#FFFFFF;}
	.st1{fill:#E57B3D;}
</style>
<g id="Layer_4">
</g>
<g id="Layer_1">
</g>
<g id="Layer_3">
</g>
<g id="Layer_2">
	<g>
		<circle class="st0" cx="26.4" cy="18.3" r="1.1"/>
		<path class="st0" d="M19.8,1.8c-9.9,0-18,8.1-18,18s8.1,18,18,18s18-8.1,18-18S29.7,1.8,19.8,1.8z M29.9,22.8c0,1.2-1,2.1-2.1,2.1
			h-1v2.5c0,1.3-1,2.3-2.3,2.3h-9.4c-1.3,0-2.3-1-2.3-2.3V25H12c-1.2,0-2.1-1-2.1-2.1v-4.9c0-1.2,1-2.1,2.1-2.1h0.8v-4.2
			c0-1.3,1-2.3,2.3-2.3h9.4c1.3,0,2.3,1,2.3,2.3v4.2h1c1.2,0,2.1,1,2.1,2.1V22.8z"/>
		<rect x="19.5" y="12.6" class="st1" width="0.2" height="0.1"/>
		<path class="st0" d="M25.2,15.8v-3.9c0-0.5-0.4-1-1-1h-8.6c-0.5,0-1,0.4-1,1v3.9H25.2z"/>
		<path class="st0" d="M14.7,21.6v5.6c0,0.5,0.4,1,1,1h8.6c0.5,0,1-0.4,1-1v-5.6H14.7z M22.6,26h-5.4v-1h5.4V26z M23.9,24.1h-8v-1h8
			V24.1z"/>
	</g>
</g>
</svg>
