<?xml version="1.0" encoding="utf-8"?>
<svg viewBox="214.60000610351562 330.79998779296875 372.29998779296875 36.099998474121094" width="372.29998779296875" height="36.099998474121094" xmlns="http://www.w3.org/2000/svg">
  <defs>
    <linearGradient id="gradient-234" gradientUnits="userSpaceOnUse" x1="402.8" y1="82.4" x2="402.8" y2="84" gradientTransform="matrix(1, 0, 0, 1, 0, 0)">
      <stop offset="0" style="stop-color: rgba(248, 188, 9, 0.92)"/>
      <stop offset="1" style="stop-color: rgba(151, 114, 4, 0.92)"/>
    </linearGradient>
  </defs>
  <g transform="matrix(1, 0, 0, 1, 0, 5.684341886080802e-14)">
    <g>
      <path class="st2" d="M396.9,361.5c1.3,1.1,2.3,4.7-1.1,4.2c-0.6-0.5-0.5-1.7-0.9-2.4c-3.2,0.3-8.5,0.6-10.8-1.3 c-2.9,2.1-5,4.9-9.4,4c-2.1-0.4-3.3-2.7-5.7-2.4c-1.3,0.2-2.2,1.3-3.1,2c-1.7,0.4-5.4,0.5-4.4-1.8c1,0.7,1.5,1,2.6,0.9 c2.8-0.3,3.5-5.4,7.5-2.2c-0.2-4.3,6-4.8,6.2-2c0.2,2.7-2.9,1.2-3.1-0.7c-1.1,0.2-1.8,1.5-1.8,2.4c0.4,3.7,9.2,2.3,9.7-0.9 c-1.3-2.5-5.6-4.2-4.4-7.7c2.1,1.7,2.6,5,5.3,6.2c1-1.1,1.3-2.8,1.3-4.8c-1.5,0.1-4,0.8-3.7-1.3c0.6-0.1,0.7,0.5,1.3,0.4 c3.3-2.7,6.8-9.6,13-5.7c-2.5-2.1-4.3-6.4-1.5-9c1.5-1.4,3.7-1,4.4-3.1c0.1-1.2-0.7-1.5-0.7-2.6c2.9-0.4,1.9,3.6,1.5,4.2 c-1.1,1.9-5.4,2.3-4,7c0.6,2,2.6,3.6,3.3,5.7C399.5,353.5,399.6,359.7,396.9,361.5z M395.6,361.3c3.4-2.2,2.8-9.1-0.2-11.4 c-5.7-4.3-11.4,3.8-6.6,7.2c1.5,0,3.3,0.2,3.5-1.1c-0.2-1-1.8-0.5-1.8-1.8c0.4-0.6,0.9-1,1.5-1.3c3.6,1.2,1,5.3-1.5,5.5 c-2.2,0.2-3.6-1.6-4.8-2.2c0.3,2.1-0.8,2.9-1.1,4.4C387.3,362.7,392.6,363.2,395.6,361.3z" style="fill-rule: evenodd; clip-rule: evenodd; fill: url(#gradient-234);"/>
      <path class="st2" d="M403.2,350.5c0.7-2.1,2.7-3.7,3.3-5.7c1.4-4.7-2.8-5.1-4-7c-0.3-0.6-1.4-4.6,1.5-4.2c0.1,1.1-0.8,1.4-0.7,2.6 c0.7,2.1,2.9,1.7,4.4,3.1c2.7,2.6,1,6.9-1.5,9c6.2-3.9,9.6,3,13,5.7c0.6,0.1,0.7-0.5,1.3-0.4c0.3,2.2-2.3,1.4-3.7,1.3 c0,2,0.4,3.7,1.3,4.8c2.6-1.2,3.2-4.5,5.3-6.2c1.2,3.5-3.1,5.2-4.4,7.7c0.5,3.2,9.3,4.6,9.7,0.9c0.1-0.9-0.7-2.2-1.8-2.4 c-0.1,1.8-3.2,3.4-3.1,0.7c0.2-2.9,6.4-2.3,6.2,2c4-3.2,4.7,1.9,7.5,2.2c1.2,0.1,1.6-0.2,2.6-0.9c1,2.2-2.7,2.2-4.4,1.8 c-0.9-0.7-1.8-1.8-3.1-2c-2.4-0.3-3.6,2-5.7,2.4c-4.5,0.9-6.6-1.9-9.4-4c-2.3,1.9-7.6,1.6-10.8,1.3c-0.4,0.7-0.3,1.9-0.9,2.4 c-3.4,0.5-2.4-3.1-1.1-4.2C402.1,359.7,402.2,353.5,403.2,350.5z M417.1,360.6c-0.3-1.5-1.4-2.3-1.1-4.4c-1.3,0.6-2.6,2.4-4.8,2.2 c-2.6-0.2-5.1-4.3-1.5-5.5c0.7,0.3,1.2,0.7,1.5,1.3c0.1,1.2-1.6,0.8-1.8,1.8c0.3,1.3,2,1.1,3.5,1.1c4.8-3.5-0.9-11.6-6.6-7.2 c-3,2.4-3.6,9.3-0.2,11.4C409.1,363.2,414.4,362.7,417.1,360.6z" style="fill-rule: evenodd; clip-rule: evenodd; fill: url(#gradient-234);"/>
      <path class="st1" d="M384.7,330.8c0.1,1.9-0.2,3.8-0.7,5.7c-0.5,1.9-1.4,3.6-2.4,5.3c-2.1,3.3-5,6-8.1,8.3 c-3.2,2.3-6.6,4.1-10.2,5.6c-3.6,1.5-7.3,2.6-11.1,3.5c-3.8,0.8-7.6,1.5-11.5,1.8c-3.9,0.4-7.8,0.4-11.6,0.4 c-7.7,0-15.3-0.3-22.9-0.5l-22.9-0.9c-7.6-0.3-15.2-0.5-22.9-0.7c-15.2-0.3-30.5-0.2-45.8,0.5c15.1-2.2,30.5-3,45.8-3.2 c7.7-0.1,15.3,0,22.9,0.1c7.6,0.2,15.3,0.4,22.9,0.7c7.6,0.3,15.2,0.6,22.9,0.7c7.6,0.2,15.1-0.1,22.5-1.5 c7.4-1.4,14.6-3.8,21-7.8c3.2-2,6-4.5,8.3-7.5C383.1,338.3,384.6,334.6,384.7,330.8z" style="fill: url(#gradient-234);"/>
      <path class="st1" d="M416.8,330.8c0.2,3.8,1.8,7.4,4,10.4c2.3,3,5.1,5.4,8.3,7.3c6.3,3.9,13.6,6.2,20.9,7.6 c3.7,0.7,7.4,1.1,11.1,1.3c3.7,0.2,7.5,0.2,11.3,0.1c7.6-0.2,15.2-0.4,22.8-0.8c7.6-0.3,15.3-0.5,22.9-0.7c7.6-0.1,15.3-0.2,23,0 c15.3,0.3,30.7,1.3,45.8,3.7c-15.3-0.4-30.5-0.4-45.7,0c-7.6,0.2-15.2,0.4-22.8,0.8l-22.9,0.9c-7.6,0.2-15.3,0.5-23,0.5 c-3.8,0-7.7-0.1-11.6-0.4c-3.9-0.3-7.7-1-11.5-1.9c-3.8-0.9-7.6-2-11.2-3.6c-3.6-1.5-7.1-3.4-10.3-5.7c-3.1-2.3-6-5.1-8.1-8.5 c-1-1.7-1.9-3.5-2.4-5.3C416.9,334.7,416.7,332.7,416.8,330.8z" style="fill: url(#gradient-234);"/>
    </g>
  </g>
</svg>