<?xml version="1.0" encoding="utf-8"?>
<svg viewBox="0 0 39.6 39.6" width="39.6" height="39.6" style="enable-background:new 0 0 39.6 39.6;" xmlns="http://www.w3.org/2000/svg">
  <defs>
    <linearGradient id="gradient-1" gradientUnits="userSpaceOnUse" x1="19.8" y1="1.8" x2="19.8" y2="37.8">
      <stop offset="0" style="stop-color: rgb(233, 218, 182);"/>
      <stop offset="1" style="stop-color: rgb(192, 146, 7);"/>
    </linearGradient>
    <style type="text/css">
	.st0{fill:none;}
	.st1{fill:#FFFFFF;}
</style>
  </defs>
  <g id="Layer_4"/>
  <g id="Layer_1"/>
  <g id="Layer_3"/>
  <g id="Layer_2">
    <path class="st0" d="M27.5,14.9h-7v3.9h8V16C28.5,15.4,28.1,14.9,27.5,14.9z"/>
    <path class="st1" d="M19.8,1.8c-9.9,0-18,8.1-18,18s8.1,18,18,18s18-8.1,18-18S29.7,1.8,19.8,1.8z M19.2,28.1h-6.3 c-0.4,0-0.8-0.4-0.8-0.8v-7.8h7.1V28.1z M19.2,18.9h-7.8V16c0-0.6,0.5-1.1,1.1-1.1h6.7V18.9z M13.1,13.6C12.8,13,13,11,15.4,11.3 s3.9,3.3,3.9,3.3S13.8,15.1,13.1,13.6z M24.3,11.2c2.4-0.3,2.7,1.7,2.3,2.4c-0.7,1.5-6.2,0.9-6.2,0.9S21.9,11.5,24.3,11.2z M27.8,27.3c0,0.4-0.4,0.8-0.8,0.8h-6.5v-8.6h7.3V27.3z M28.5,18.9h-8v-3.9h7c0.6,0,1.1,0.5,1.1,1.1V18.9z" style="fill: url(#gradient-1);"/>
  </g>
</svg>