<?xml version="1.0" encoding="utf-8"?>
<svg viewBox="2.5 1.8 36 36" width="36" height="36" xmlns="http://www.w3.org/2000/svg">
  <defs>
    <linearGradient id="gradient-0" gradientUnits="userSpaceOnUse" x1="25.2" y1="26" x2="25.2" y2="27.2" gradientTransform="matrix(0.960317, 0, 0, 0.960317, 0.813493, 0.785929)">
      <stop offset="0" style="stop-color: rgb(192, 146, 7);"/>
      <stop offset="1" style="stop-color: rgb(192, 146, 7);"/>
    </linearGradient>
    <linearGradient id="gradient-1" gradientUnits="userSpaceOnUse" x1="28.2" y1="26" x2="28.2" y2="27.2" gradientTransform="matrix(0.960317, 0, 0, 0.960317, 0.813493, 0.785929)">
      <stop offset="0" style="stop-color: rgb(192, 146, 7);"/>
      <stop offset="1" style="stop-color: rgb(192, 146, 7);"/>
    </linearGradient>
    <linearGradient id="gradient-2" gradientUnits="userSpaceOnUse" x1="20.5" y1="1.8" x2="20.5" y2="37.8" gradientTransform="matrix(0.960317, 0, 0, 0.960317, 0.813493, 0.785929)">
      <stop offset="0" style="stop-color: rgb(233, 218, 182);"/>
      <stop offset="1" style="stop-color: rgb(192, 146, 7);"/>
    </linearGradient>
    <style type="text/css">
	.st0{fill:#FFFFFF;}
</style>
  </defs>
  <circle class="st0" cx="25.013" cy="26.33" r="0.576" style="fill: url(#gradient-0);"/>
  <circle class="st0" cx="27.894" cy="26.33" r="0.576" style="fill: url(#gradient-1);"/>
  <path class="st0" d="M 20.5 2.515 C 10.993 2.515 3.214 10.294 3.214 19.801 C 3.214 29.308 10.993 37.086 20.5 37.086 C 30.007 37.086 37.786 29.308 37.786 19.801 C 37.786 10.294 30.007 2.515 20.5 2.515 Z M 14.642 17.016 C 14.834 16.536 15.218 16.536 15.218 16.536 L 18.291 16.536 L 18.291 11.446 C 18.291 11.446 18.195 11.158 18.387 10.966 C 18.579 10.774 18.867 10.87 18.867 10.87 L 22.133 10.87 C 22.133 10.87 22.421 10.87 22.517 10.966 C 22.709 11.158 22.709 11.446 22.709 11.446 L 22.709 16.536 L 25.686 16.632 C 25.686 16.632 26.166 16.632 26.262 17.112 C 26.454 17.592 26.166 18.072 26.166 18.072 L 21.268 22.97 C 21.268 22.97 20.884 23.45 20.5 23.45 C 20.02 23.45 19.732 23.066 19.732 23.066 L 14.642 17.976 C 14.738 17.88 14.354 17.496 14.642 17.016 Z M 30.391 27.291 C 30.391 27.963 29.815 28.54 29.143 28.54 L 11.953 28.54 C 11.281 28.54 10.705 27.963 10.705 27.291 L 10.705 23.642 C 10.705 22.97 11.281 22.394 11.953 22.394 L 17.523 22.394 C 17.523 22.394 19.252 24.794 20.596 24.794 C 21.94 24.794 23.669 22.394 23.669 22.394 L 29.143 22.394 C 29.815 22.394 30.391 22.97 30.391 23.642 L 30.391 27.291 Z" style="fill: url(#gradient-2);"/>
</svg>