<?xml version="1.0" encoding="utf-8"?>
<!-- Generator: Adobe Illustrator 21.1.0, SVG Export Plug-In . SVG Version: 6.00 Build 0)  -->
<svg version="1.1" xmlns="http://www.w3.org/2000/svg" xmlns:xlink="http://www.w3.org/1999/xlink" x="0px" y="0px"
	 viewBox="0 0 39.6 39.6" style="enable-background:new 0 0 39.6 39.6;" xml:space="preserve">
<style type="text/css">
	.st0{fill:#FFFFFF;}
</style>
<g id="Layer_4">
</g>
<g id="Layer_1">
</g>
<g id="Layer_3">
</g>
<g id="Layer_2">
	<g>
		<circle class="st0" cx="25.2" cy="26.6" r="0.6"/>
		<circle class="st0" cx="28.2" cy="26.6" r="0.6"/>
		<path class="st0" d="M20.5,1.8c-9.9,0-18,8.1-18,18s8.1,18,18,18s18-8.1,18-18S30.4,1.8,20.5,1.8z M14.4,16.9
			c0.2-0.5,0.6-0.5,0.6-0.5l3.2,0v-5.3c0,0-0.1-0.3,0.1-0.5c0.2-0.2,0.5-0.1,0.5-0.1h3.4c0,0,0.3,0,0.4,0.1c0.2,0.2,0.2,0.5,0.2,0.5
			l0,5.3l3.1,0.1c0,0,0.5,0,0.6,0.5c0.2,0.5-0.1,1-0.1,1l-5.1,5.1c0,0-0.4,0.5-0.8,0.5c-0.5,0-0.8-0.4-0.8-0.4l-5.3-5.3
			C14.5,17.8,14.1,17.4,14.4,16.9z M30.8,27.6c0,0.7-0.6,1.3-1.3,1.3H11.6c-0.7,0-1.3-0.6-1.3-1.3v-3.8c0-0.7,0.6-1.3,1.3-1.3h5.8
			c0,0,1.8,2.5,3.2,2.5c1.4,0,3.2-2.5,3.2-2.5h5.7c0.7,0,1.3,0.6,1.3,1.3V27.6z"/>
	</g>
</g>
</svg>
