<?xml version="1.0" encoding="utf-8"?>
<svg viewBox="0 0 39.6 39.6" width="39.6" height="39.6" style="enable-background:new 0 0 39.6 39.6;" xmlns="http://www.w3.org/2000/svg">
  <defs>
    <linearGradient id="gradient-6" gradientUnits="userSpaceOnUse" x1="14.1" y1="23" x2="14.1" y2="25.8" gradientTransform="matrix(1, 0, 0, 1, 0.129997, 0)">
      <stop offset="0" style="stop-color: rgb(233, 218, 182);"/>
      <stop offset="1" style="stop-color: rgb(192, 146, 7);"/>
    </linearGradient>
    <linearGradient id="gradient-5" gradientUnits="userSpaceOnUse" x1="27.7" y1="22.9" x2="27.7" y2="25.7">
      <stop offset="0" style=""/>
      <stop offset="1" style="stop-color: rgba(204, 204, 204, 1)"/>
    </linearGradient>
    <linearGradient id="gradient-4" gradientUnits="userSpaceOnUse" x1="27.7" y1="22.9" x2="27.7" y2="25.7">
      <stop offset="0" style="stop-color: rgb(233, 218, 182);"/>
      <stop offset="1" style="stop-color: rgb(192, 146, 7);"/>
    </linearGradient>
    <linearGradient id="gradient-3" gradientUnits="userSpaceOnUse" x1="20.2" y1="2.1" x2="20.2" y2="38.1">
      <stop offset="0" style="stop-color: rgb(233, 218, 182);"/>
      <stop offset="1" style="stop-color: rgb(192, 146, 7);"/>
    </linearGradient>
    <style type="text/css">
	.st0{fill:#FFFFFF;}
</style>
  </defs>
  <g id="Layer_4"/>
  <g id="Layer_1"/>
  <g id="Layer_3"/>
  <g id="Layer_2">
    <g>
      <circle class="st0" cx="14.23" cy="24.4" r="1.4" style="fill: url(#gradient-6);"/>
      <circle class="st0" cx="27.7" cy="24.3" r="1.4" style="fill: url(#gradient-5);"/>
      <circle class="st0" cx="27.7" cy="24.3" r="1.4" style="fill: url(#gradient-4);"/>
      <path class="st0" d="M20.2,2.1c-9.9,0-18,8.1-18,18c0,9.9,8.1,18,18,18c9.9,0,18-8.1,18-18C38.2,10.2,30.1,2.1,20.2,2.1z M19,17.3 l4.5-3.7v8.1L19,17.3z M23.4,22L8.1,22l4.7-4.5l3,2.4l3-2.4L23.4,22z M23.2,13.5l-7.5,6l-7.7-6L23.2,13.5z M8.1,13.7l4.6,3.6 l-4.6,4.3V13.7z M11.9,24.4l-2.6,0l-1.2-2.2l1.1,0l0.7,1.3H12L11.9,24.4z M14.2,26.4c-1.1,0-2-0.9-2-2s0.9-2,2-2c1.1,0,2,0.9,2,2 S15.3,26.4,14.2,26.4z M25.4,24.4h-9l-0.2-0.9h9.2L25.4,24.4z M27.7,26.3c-1.1,0-2-0.9-2-2c0-1.1,0.9-2,2-2c1.1,0,2,0.9,2,2 C29.7,25.4,28.8,26.3,27.7,26.3z M32.3,24.4h-2.4l-0.1-0.9h1.5v-5.2l-4.6-3.9l-2,0L24.7,18h5.4l0.7,0.6v3.5l-6.9,0l0-8.5l3.3,0 l5.2,4.4V24.4z" style="fill: url(#gradient-3);"/>
    </g>
  </g>
</svg>