<?xml version="1.0" encoding="utf-8"?>
<!-- Generator: Adobe Illustrator 21.1.0, SVG Export Plug-In . SVG Version: 6.00 Build 0)  -->
<svg version="1.1" xmlns="http://www.w3.org/2000/svg" xmlns:xlink="http://www.w3.org/1999/xlink" x="0px" y="0px"
	 viewBox="0 0 39.6 39.6" style="enable-background:new 0 0 39.6 39.6;" xml:space="preserve">
<style type="text/css">
	.st0{fill:#FFFFFF;}
</style>
<g id="Layer_4">
</g>
<g id="Layer_1">
</g>
<g id="Layer_3">
</g>
<g id="Layer_2">
	<g>
		<circle class="st0" cx="14.1" cy="24.4" r="1.4"/>
		<circle class="st0" cx="27.7" cy="24.3" r="1.4"/>
		<circle class="st0" cx="27.7" cy="24.3" r="1.4"/>
		<path class="st0" d="M20.2,2.1c-9.9,0-18,8.1-18,18c0,9.9,8.1,18,18,18c9.9,0,18-8.1,18-18C38.2,10.2,30.1,2.1,20.2,2.1z M19,17.3
			l4.5-3.7v8.1L19,17.3z M23.4,22L8.1,22l4.7-4.5l3,2.4l3-2.4L23.4,22z M23.2,13.5l-7.5,6l-7.7-6L23.2,13.5z M8.1,13.7l4.6,3.6
			l-4.6,4.3V13.7z M11.9,24.4l-2.6,0l-1.2-2.2l1.1,0l0.7,1.3H12L11.9,24.4z M14.2,26.4c-1.1,0-2-0.9-2-2s0.9-2,2-2c1.1,0,2,0.9,2,2
			S15.3,26.4,14.2,26.4z M25.4,24.4h-9l-0.2-0.9h9.2L25.4,24.4z M27.7,26.3c-1.1,0-2-0.9-2-2c0-1.1,0.9-2,2-2c1.1,0,2,0.9,2,2
			C29.7,25.4,28.8,26.3,27.7,26.3z M32.3,24.4h-2.4l-0.1-0.9h1.5v-5.2l-4.6-3.9l-2,0L24.7,18h5.4l0.7,0.6v3.5l-6.9,0l0-8.5l3.3,0
			l5.2,4.4V24.4z"/>
	</g>
</g>
</svg>
